<svg width="100" height="100" viewBox="0 0 100 100" fill="none" xmlns="http://www.w3.org/2000/svg">
<g clip-path="url(#clip0_7840_4811)">
<path d="M97.8907 100L100 100L100 97.8817L97.8907 97.8817L97.8907 100Z" fill="#1FC7FF"/>
<path d="M87.0609 100L89.1702 100L89.1702 97.8817L87.0609 97.8817L87.0609 100Z" fill="#1FC7FF"/>
<path d="M65.4011 100L67.5104 100L67.5104 97.8817L65.4011 97.8817L65.4011 100Z" fill="#1FC7FF"/>
<path d="M76.2309 100L78.3402 100L78.3402 97.8817L76.2309 97.8817L76.2309 100Z" fill="#1FC7FF"/>
<path d="M54.5712 100L56.6805 100L56.6805 97.8817L54.5712 97.8817L54.5712 100Z" fill="#1FC7FF"/>
<path d="M97.8907 89.1243L100 89.1243L100 87.006L97.8907 87.006L97.8907 89.1243Z" fill="#1FC7FF"/>
<path d="M87.0609 89.1243L89.1702 89.1243L89.1702 87.006L87.0609 87.006L87.0609 89.1243Z" fill="#1FC7FF"/>
<path d="M65.4011 89.1243L67.5104 89.1243L67.5104 87.006L65.4011 87.006L65.4011 89.1243Z" fill="#1FC7FF"/>
<path d="M76.2309 89.1243L78.3402 89.1243L78.3402 87.006L76.2309 87.006L76.2309 89.1243Z" fill="#1FC7FF"/>
<path d="M54.5712 89.1243L56.6805 89.1243L56.6805 87.006L54.5712 87.006L54.5712 89.1243Z" fill="#1FC7FF"/>
<path d="M97.8907 78.2485L100 78.2485L100 76.1303L97.8907 76.1303L97.8907 78.2485Z" fill="#1FC7FF"/>
<path d="M87.0609 78.2485L89.1702 78.2485L89.1702 76.1302L87.0609 76.1302L87.0609 78.2485Z" fill="#1FC7FF"/>
<path d="M65.4011 78.2485L67.5104 78.2485L67.5104 76.1302L65.4011 76.1302L65.4011 78.2485Z" fill="#1FC7FF"/>
<path d="M76.2309 78.2485L78.3402 78.2485L78.3402 76.1302L76.2309 76.1302L76.2309 78.2485Z" fill="#1FC7FF"/>
<path d="M54.5712 78.2485L56.6805 78.2485L56.6805 76.1302L54.5712 76.1302L54.5712 78.2485Z" fill="#1FC7FF"/>
<path d="M97.8907 67.3727L100 67.3727L100 65.2545L97.8907 65.2545L97.8907 67.3727Z" fill="#1FC7FF"/>
<path d="M87.0609 67.3727L89.1702 67.3727L89.1702 65.2545L87.0609 65.2545L87.0609 67.3727Z" fill="#1FC7FF"/>
<path d="M65.4011 67.3727L67.5104 67.3727L67.5104 65.2545L65.4011 65.2545L65.4011 67.3727Z" fill="#1FC7FF"/>
<path d="M76.2309 67.3727L78.3402 67.3727L78.3402 65.2545L76.2309 65.2545L76.2309 67.3727Z" fill="#1FC7FF"/>
<path d="M54.5712 67.3727L56.6805 67.3727L56.6805 65.2545L54.5712 65.2545L54.5712 67.3727Z" fill="#1FC7FF"/>
<path d="M97.8907 56.497L100 56.497L100 54.3788L97.8907 54.3788L97.8907 56.497Z" fill="#1FC7FF"/>
<path d="M87.0609 56.497L89.1702 56.497L89.1702 54.3788L87.0609 54.3788L87.0609 56.497Z" fill="#1FC7FF"/>
<path d="M65.4011 56.497L67.5104 56.497L67.5104 54.3788L65.4011 54.3788L65.4011 56.497Z" fill="#1FC7FF"/>
<path d="M76.2309 56.497L78.3402 56.497L78.3402 54.3788L76.2309 54.3788L76.2309 56.497Z" fill="#1FC7FF"/>
<path d="M54.5712 56.497L56.6805 56.497L56.6805 54.3788L54.5712 54.3788L54.5712 56.497Z" fill="#1FC7FF"/>
<path d="M97.8907 45.6213L100 45.6213L100 43.503L97.8907 43.503L97.8907 45.6213Z" fill="#1FC7FF"/>
<path d="M87.0609 45.6213L89.1702 45.6213L89.1702 43.503L87.0609 43.503L87.0609 45.6213Z" fill="#1FC7FF"/>
<path d="M65.4011 45.6213L67.5104 45.6213L67.5104 43.503L65.4011 43.503L65.4011 45.6213Z" fill="#1FC7FF"/>
<path d="M76.2309 45.6213L78.3402 45.6213L78.3402 43.503L76.2309 43.503L76.2309 45.6213Z" fill="#1FC7FF"/>
<path d="M54.5712 45.6213L56.6805 45.6213L56.6805 43.503L54.5712 43.503L54.5712 45.6213Z" fill="#1FC7FF"/>
<path d="M97.8907 34.7455L100 34.7455L100 32.6272L97.8907 32.6272L97.8907 34.7455Z" fill="#1FC7FF"/>
<path d="M87.0609 34.7455L89.1702 34.7455L89.1702 32.6272L87.0609 32.6272L87.0609 34.7455Z" fill="#1FC7FF"/>
<path d="M65.4011 34.7455L67.5104 34.7455L67.5104 32.6272L65.4011 32.6272L65.4011 34.7455Z" fill="#1FC7FF"/>
<path d="M76.2309 34.7455L78.3402 34.7455L78.3402 32.6272L76.2309 32.6272L76.2309 34.7455Z" fill="#1FC7FF"/>
<path d="M97.8907 23.8698L100 23.8698L100 21.7515L97.8907 21.7515L97.8907 23.8698Z" fill="#1FC7FF"/>
<path d="M87.0609 23.8698L89.1702 23.8698L89.1702 21.7515L87.0609 21.7515L87.0609 23.8698Z" fill="#1FC7FF"/>
<path d="M76.2309 23.8698L78.3402 23.8698L78.3402 21.7515L76.2309 21.7515L76.2309 23.8698Z" fill="#1FC7FF"/>
<path d="M97.8907 12.994L100 12.994L100 10.8758L97.8907 10.8758L97.8907 12.994Z" fill="#1FC7FF"/>
<path d="M87.0609 12.994L89.1702 12.994L89.1702 10.8758L87.0609 10.8758L87.0609 12.994Z" fill="#1FC7FF"/>
<path d="M97.8907 2.11829L100 2.11829L100 2.80542e-05L97.8907 2.78698e-05L97.8907 2.11829Z" fill="#1FC7FF"/>
<path d="M43.3134 100L45.4227 100L45.4227 97.8817L43.3134 97.8817L43.3134 100Z" fill="#1FC7FF"/>
<path d="M32.4836 100L34.5929 100L34.5929 97.8817L32.4836 97.8817L32.4836 100Z" fill="#1FC7FF"/>
<path d="M10.8299 100L12.9392 100L12.9392 97.8817L10.8299 97.8817L10.8299 100Z" fill="#1FC7FF"/>
<path d="M21.6597 100L23.7691 100L23.7691 97.8817L21.6597 97.8817L21.6597 100Z" fill="#1FC7FF"/>
<path d="M-1.66893e-06 100L2.10932 100L2.10932 97.8817L-1.48375e-06 97.8817L-1.66893e-06 100Z" fill="#1FC7FF"/>
<path d="M43.3134 89.1243L45.4227 89.1243L45.4227 87.006L43.3134 87.006L43.3134 89.1243Z" fill="#1FC7FF"/>
<path d="M32.4836 89.1243L34.5929 89.1243L34.5929 87.006L32.4836 87.006L32.4836 89.1243Z" fill="#1FC7FF"/>
<path d="M10.8299 89.1243L12.9392 89.1243L12.9392 87.006L10.8299 87.006L10.8299 89.1243Z" fill="#1FC7FF"/>
<path d="M21.6597 89.1243L23.7691 89.1243L23.7691 87.006L21.6597 87.006L21.6597 89.1243Z" fill="#1FC7FF"/>
<path d="M43.3134 78.2485L45.4227 78.2485L45.4227 76.1302L43.3134 76.1302L43.3134 78.2485Z" fill="#1FC7FF"/>
<path d="M32.4836 78.2485L34.5929 78.2485L34.5929 76.1302L32.4836 76.1302L32.4836 78.2485Z" fill="#1FC7FF"/>
<path d="M21.6597 78.2485L23.7691 78.2485L23.7691 76.1302L21.6597 76.1302L21.6597 78.2485Z" fill="#1FC7FF"/>
<path d="M43.3134 67.3727L45.4227 67.3727L45.4227 65.2545L43.3134 65.2545L43.3134 67.3727Z" fill="#1FC7FF"/>
<path d="M32.4836 67.3727L34.5929 67.3727L34.5929 65.2545L32.4836 65.2545L32.4836 67.3727Z" fill="#1FC7FF"/>
<path d="M43.3134 56.497L45.4227 56.497L45.4227 54.3788L43.3134 54.3788L43.3134 56.497Z" fill="#1FC7FF"/>
</g>
<defs>
<clipPath id="clip0_7840_4811">
<rect width="100" height="100" fill="white" transform="translate(100 100) rotate(-180)"/>
</clipPath>
</defs>
</svg>
