<svg width="100" height="100" viewBox="0 0 100 100" fill="none" xmlns="http://www.w3.org/2000/svg">
<g clip-path="url(#clip0_7840_4812)">
<path d="M2.10933 100L8.74228e-06 100L8.55709e-06 97.8817L2.10933 97.8817L2.10933 100Z" fill="#1FC7FF"/>
<path d="M12.9392 100L10.8299 100L10.8299 97.8817L12.9392 97.8817L12.9392 100Z" fill="#1FC7FF"/>
<path d="M34.599 100L32.4896 100L32.4896 97.8817L34.599 97.8817L34.599 100Z" fill="#1FC7FF"/>
<path d="M23.7691 100L21.6597 100L21.6597 97.8817L23.7691 97.8817L23.7691 100Z" fill="#1FC7FF"/>
<path d="M45.4288 100L43.3195 100L43.3195 97.8817L45.4288 97.8817L45.4288 100Z" fill="#1FC7FF"/>
<path d="M2.10933 89.1243L8.74228e-06 89.1243L8.55709e-06 87.006L2.10933 87.006L2.10933 89.1243Z" fill="#1FC7FF"/>
<path d="M12.9392 89.1243L10.8299 89.1243L10.8299 87.006L12.9392 87.006L12.9392 89.1243Z" fill="#1FC7FF"/>
<path d="M34.5989 89.1243L32.4896 89.1243L32.4896 87.006L34.5989 87.006L34.5989 89.1243Z" fill="#1FC7FF"/>
<path d="M23.7691 89.1243L21.6597 89.1243L21.6597 87.006L23.7691 87.006L23.7691 89.1243Z" fill="#1FC7FF"/>
<path d="M45.4288 89.1243L43.3195 89.1243L43.3195 87.006L45.4288 87.006L45.4288 89.1243Z" fill="#1FC7FF"/>
<path d="M2.10933 78.2485L8.74228e-06 78.2485L8.55709e-06 76.1303L2.10933 76.1303L2.10933 78.2485Z" fill="#1FC7FF"/>
<path d="M12.9392 78.2485L10.8299 78.2485L10.8299 76.1302L12.9392 76.1302L12.9392 78.2485Z" fill="#1FC7FF"/>
<path d="M34.5989 78.2485L32.4896 78.2485L32.4896 76.1302L34.5989 76.1302L34.5989 78.2485Z" fill="#1FC7FF"/>
<path d="M23.7691 78.2485L21.6597 78.2485L21.6597 76.1302L23.7691 76.1302L23.7691 78.2485Z" fill="#1FC7FF"/>
<path d="M45.4288 78.2485L43.3195 78.2485L43.3195 76.1302L45.4288 76.1302L45.4288 78.2485Z" fill="#1FC7FF"/>
<path d="M2.10933 67.3727L8.74228e-06 67.3727L8.55709e-06 65.2545L2.10933 65.2545L2.10933 67.3727Z" fill="#1FC7FF"/>
<path d="M12.9392 67.3727L10.8299 67.3727L10.8299 65.2545L12.9392 65.2545L12.9392 67.3727Z" fill="#1FC7FF"/>
<path d="M34.5989 67.3727L32.4896 67.3727L32.4896 65.2545L34.5989 65.2545L34.5989 67.3727Z" fill="#1FC7FF"/>
<path d="M23.7691 67.3727L21.6597 67.3727L21.6597 65.2545L23.7691 65.2545L23.7691 67.3727Z" fill="#1FC7FF"/>
<path d="M45.4288 67.3727L43.3195 67.3727L43.3195 65.2545L45.4288 65.2545L45.4288 67.3727Z" fill="#1FC7FF"/>
<path d="M2.10933 56.497L8.74228e-06 56.497L8.55709e-06 54.3788L2.10933 54.3788L2.10933 56.497Z" fill="#1FC7FF"/>
<path d="M12.9392 56.497L10.8299 56.497L10.8299 54.3788L12.9392 54.3788L12.9392 56.497Z" fill="#1FC7FF"/>
<path d="M34.5989 56.497L32.4896 56.497L32.4896 54.3788L34.5989 54.3788L34.5989 56.497Z" fill="#1FC7FF"/>
<path d="M23.7691 56.497L21.6597 56.497L21.6597 54.3788L23.7691 54.3788L23.7691 56.497Z" fill="#1FC7FF"/>
<path d="M45.4288 56.497L43.3195 56.497L43.3195 54.3788L45.4288 54.3788L45.4288 56.497Z" fill="#1FC7FF"/>
<path d="M2.10933 45.6213L8.74228e-06 45.6213L8.55709e-06 43.503L2.10933 43.503L2.10933 45.6213Z" fill="#1FC7FF"/>
<path d="M12.9392 45.6213L10.8299 45.6213L10.8299 43.503L12.9392 43.503L12.9392 45.6213Z" fill="#1FC7FF"/>
<path d="M34.5989 45.6213L32.4896 45.6213L32.4896 43.503L34.5989 43.503L34.5989 45.6213Z" fill="#1FC7FF"/>
<path d="M23.7691 45.6213L21.6597 45.6213L21.6597 43.503L23.7691 43.503L23.7691 45.6213Z" fill="#1FC7FF"/>
<path d="M45.4288 45.6213L43.3195 45.6213L43.3195 43.503L45.4288 43.503L45.4288 45.6213Z" fill="#1FC7FF"/>
<path d="M2.10933 34.7455L8.74228e-06 34.7455L8.55709e-06 32.6272L2.10933 32.6272L2.10933 34.7455Z" fill="#1FC7FF"/>
<path d="M12.9392 34.7455L10.8299 34.7455L10.8299 32.6272L12.9392 32.6272L12.9392 34.7455Z" fill="#1FC7FF"/>
<path d="M34.5989 34.7455L32.4896 34.7455L32.4896 32.6272L34.5989 32.6272L34.5989 34.7455Z" fill="#1FC7FF"/>
<path d="M23.7691 34.7455L21.6597 34.7455L21.6597 32.6272L23.7691 32.6272L23.7691 34.7455Z" fill="#1FC7FF"/>
<path d="M2.10933 23.8698L8.74228e-06 23.8698L8.55709e-06 21.7515L2.10933 21.7515L2.10933 23.8698Z" fill="#1FC7FF"/>
<path d="M12.9392 23.8698L10.8299 23.8698L10.8299 21.7515L12.9392 21.7515L12.9392 23.8698Z" fill="#1FC7FF"/>
<path d="M23.7691 23.8698L21.6597 23.8698L21.6597 21.7515L23.7691 21.7515L23.7691 23.8698Z" fill="#1FC7FF"/>
<path d="M2.10933 12.994L8.74228e-06 12.994L8.55709e-06 10.8758L2.10933 10.8758L2.10933 12.994Z" fill="#1FC7FF"/>
<path d="M12.9392 12.994L10.8299 12.994L10.8299 10.8758L12.9392 10.8758L12.9392 12.994Z" fill="#1FC7FF"/>
<path d="M2.10933 2.11829L8.74228e-06 2.11829L8.55709e-06 2.80542e-05L2.10933 2.78698e-05L2.10933 2.11829Z" fill="#1FC7FF"/>
<path d="M56.6866 100L54.5772 100L54.5772 97.8817L56.6866 97.8817L56.6866 100Z" fill="#1FC7FF"/>
<path d="M67.5164 100L65.4071 100L65.4071 97.8817L67.5164 97.8817L67.5164 100Z" fill="#1FC7FF"/>
<path d="M89.1702 100L87.0608 100L87.0608 97.8817L89.1702 97.8817L89.1702 100Z" fill="#1FC7FF"/>
<path d="M78.3403 100L76.231 100L76.231 97.8817L78.3403 97.8817L78.3403 100Z" fill="#1FC7FF"/>
<path d="M100 100L97.8907 100L97.8907 97.8817L100 97.8817L100 100Z" fill="#1FC7FF"/>
<path d="M56.6866 89.1243L54.5772 89.1243L54.5772 87.006L56.6866 87.006L56.6866 89.1243Z" fill="#1FC7FF"/>
<path d="M67.5164 89.1243L65.4071 89.1243L65.4071 87.006L67.5164 87.006L67.5164 89.1243Z" fill="#1FC7FF"/>
<path d="M89.1702 89.1243L87.0608 89.1243L87.0608 87.006L89.1702 87.006L89.1702 89.1243Z" fill="#1FC7FF"/>
<path d="M78.3403 89.1243L76.231 89.1243L76.231 87.006L78.3403 87.006L78.3403 89.1243Z" fill="#1FC7FF"/>
<path d="M56.6866 78.2485L54.5772 78.2485L54.5772 76.1302L56.6866 76.1302L56.6866 78.2485Z" fill="#1FC7FF"/>
<path d="M67.5164 78.2485L65.4071 78.2485L65.4071 76.1302L67.5164 76.1302L67.5164 78.2485Z" fill="#1FC7FF"/>
<path d="M78.3403 78.2485L76.231 78.2485L76.231 76.1302L78.3403 76.1302L78.3403 78.2485Z" fill="#1FC7FF"/>
<path d="M56.6866 67.3727L54.5772 67.3727L54.5772 65.2545L56.6866 65.2545L56.6866 67.3727Z" fill="#1FC7FF"/>
<path d="M67.5164 67.3727L65.4071 67.3727L65.4071 65.2545L67.5164 65.2545L67.5164 67.3727Z" fill="#1FC7FF"/>
<path d="M56.6866 56.497L54.5772 56.497L54.5772 54.3788L56.6866 54.3788L56.6866 56.497Z" fill="#1FC7FF"/>
</g>
<defs>
<clipPath id="clip0_7840_4812">
<rect width="100" height="100" fill="white" transform="matrix(1 -8.74228e-08 -8.74228e-08 -1 8.74228e-06 100)"/>
</clipPath>
</defs>
</svg>
